<svg xmlns="http://www.w3.org/2000/svg" xmlns:xlink="http://www.w3.org/1999/xlink" version="1.1" viewBox="0 0 240 234">
<style type="text/css">
.st0{fill:#00005B;}
.st1{fill:#9999FF;}
</style>
<g>
<g>
<path class="st0" d="M42.5,0h155C221,0,240,19,240,42.5v149c0,23.5-19,42.5-42.5,42.5h-155C19,234,0,215,0,191.5v-149C0,19,19,0,42.5,0z"/>
</g>
<g>
<path class="st1" d="M60,172V63c0-1.1,0.4-1.6,1.3-1.6c1.1,0,2.9,0,5.2-0.1c2.3-0.1,4.8-0.1,7.6-0.2c2.8-0.1,5.4-0.1,7.9-0.2c2.5-0.1,4.8-0.1,7-0.1c5.2,0,9.6,0.6,13.2,1.9c3.2,1.1,5.9,2.9,8.2,5.3c2,2,3.5,4.5,4.5,7.3c0.9,2.5,1.4,5.4,1.4,8.5c0,5.5-1.3,10.1-3.9,13.7c-2.6,3.6-6.2,6.3-10.4,7.9c-4.4,1.6-9.2,2.2-14.5,2.2c-1.6,0-2.6,0-3.2,0c-0.6,0-1.5,0-2.8-0.1v28.9c0,0.6-0.2,1-0.7,1.2c-0.5,0.2-1.1,0.2-1.7,0.2H61.5C60.7,174,60,173.5,60,172z M80.8,91.9v27.5c0.9,0.1,1.7,0.1,2.5,0.1h4c2.5,0,5.1-0.4,7.6-1.2c2.1-0.6,4-1.8,5.5-3.5c1.4-1.6,2.1-3.9,2.1-6.8c0-2-0.5-4-1.5-5.8c-1.1-1.7-2.7-3-4.6-3.7c-2.4-1-5-1.4-7.6-1.3c-1.7,0-3.2,0-4.4,0.1C82.5,91.8,81.5,91.8,80.8,91.9z"/>
<path class="st1" d="M192,106.9c-3-1.6-6.2-2.7-9.6-3.4c-3.7-0.8-7.4-1.3-11.2-1.3c-2-0.1-4.1,0.2-6,0.7c-1.3,0.3-2.4,1-3.1,2c-0.5,0.8-0.8,1.8-0.8,2.7c0,0.9,0.4,1.8,1,2.6c0.9,1.1,2.1,2,3.4,2.7c2.3,1.2,4.7,2.3,7.1,3.3c5.4,1.8,10.6,4.3,15.4,7.3c3.3,2.1,6,4.9,7.9,8.3c1.6,3.2,2.4,6.7,2.3,10.3c0.1,4.7-1.3,9.4-3.9,13.3c-2.8,4-6.7,7.1-11.2,8.9c-4.9,2.1-10.9,3.2-18.1,3.2c-4.6,0-9.1-0.4-13.6-1.3c-3.5-0.6-7-1.7-10.2-3.2c-0.7-0.4-1.2-1.1-1.1-1.9v-17.4c0-0.3,0.1-0.7,0.4-0.9c0.3-0.2,0.6-0.1,0.9,0.1c3.9,2.3,8,3.9,12.4,4.9c3.8,1,7.8,1.5,11.8,1.5c3.8,0,6.5-0.5,8.3-1.4c1.6-0.7,2.7-2.4,2.7-4.2c0-1.4-0.8-2.7-2.4-4c-1.6-1.3-4.9-2.8-9.8-4.7c-5.1-1.8-9.8-4.2-14.2-7.2c-3.1-2.2-5.7-5.1-7.6-8.5c-1.6-3.2-2.4-6.7-2.3-10.2c0-4.3,1.2-8.4,3.4-12.1c2.5-4,6.2-7.2,10.5-9.2c4.7-2.4,10.6-3.5,17.7-3.5c4.1,0,8.3,0.3,12.4,0.9c3,0.4,5.9,1.2,8.6,2.3c0.4,0.1,0.8,0.5,1,0.9c0.1,0.4,0.2,0.8,0.2,1.2v16.3c0,0.4-0.2,0.8-0.5,1C192.9,107.1,192.4,107.1,192,106.9z"/>
</g>
</g>
</svg>