<svg xmlns="http://www.w3.org/2000/svg" viewBox="0 0 64 64" width="64" height="64">
  <!-- Geek Uninstaller - Red trash can icon -->
  <!-- Trash can body -->
  <path d="M16 22 L48 22 L46 54 Q46 58 42 58 L22 58 Q18 58 18 54 Z" fill="#D32F2F"/>
  <!-- Trash can body lighter section -->
  <path d="M20 22 L44 22 L42 54 Q42 56 40 56 L24 56 Q22 56 22 54 Z" fill="#E53935"/>
  <!-- Lid -->
  <rect x="14" y="16" width="36" height="8" rx="2" fill="#B71C1C"/>
  <rect x="14" y="16" width="36" height="5" rx="2" fill="#C62828"/>
  <!-- Handle on lid -->
  <rect x="24" y="10" width="16" height="8" rx="3" fill="#B71C1C"/>
  <!-- Horizontal lines on can (details) -->
  <line x1="24" y1="32" x2="40" y2="32" stroke="#C62828" stroke-width="1.5"/>
  <line x1="24" y1="38" x2="40" y2="38" stroke="#C62828" stroke-width="1.5"/>
  <line x1="24" y1="44" x2="40" y2="44" stroke="#C62828" stroke-width="1.5"/>
  <!-- Wheels on bottom -->
  <circle cx="24" cy="56" r="3" fill="#555"/>
  <circle cx="40" cy="56" r="3" fill="#555"/>
</svg>
